<svg width="98" height="52" viewBox="0 0 98 52" fill="none" xmlns="http://www.w3.org/2000/svg">
<path d="M1.392 48V36.72H8.512V37.824H2.672V41.728H8.176V42.832H2.672V46.896H8.512V48H1.392ZM12.8671 48.144C12.3338 48.144 11.8538 48.0427 11.4271 47.84C11.0111 47.6267 10.6805 47.3387 10.4351 46.976C10.1898 46.6133 10.0671 46.208 10.0671 45.76C10.0671 45.1947 10.2111 44.7467 10.4991 44.416C10.7978 44.0853 11.2831 43.8507 11.9551 43.712C12.6378 43.5627 13.5658 43.488 14.7391 43.488H15.2511V42.992C15.2511 42.3307 15.1125 41.856 14.8351 41.568C14.5685 41.2693 14.1365 41.12 13.5391 41.12C13.0698 41.12 12.6165 41.1893 12.1791 41.328C11.7418 41.456 11.2938 41.6693 10.8351 41.968L10.3871 41.024C10.7925 40.736 11.2831 40.5067 11.8591 40.336C12.4458 40.1653 13.0058 40.08 13.5391 40.08C14.5418 40.08 15.2831 40.3253 15.7631 40.816C16.2538 41.3067 16.4991 42.0693 16.4991 43.104V48H15.2831V46.656C15.0805 47.1147 14.7658 47.4773 14.3391 47.744C13.9231 48.0107 13.4325 48.144 12.8671 48.144ZM13.0751 47.168C13.7151 47.168 14.2378 46.9493 14.6431 46.512C15.0485 46.064 15.2511 45.4987 15.2511 44.816V44.336H14.7551C13.8911 44.336 13.2085 44.3787 12.7071 44.464C12.2165 44.5387 11.8698 44.6773 11.6671 44.88C11.4751 45.072 11.3791 45.3387 11.3791 45.68C11.3791 46.1173 11.5285 46.4747 11.8271 46.752C12.1365 47.0293 12.5525 47.168 13.0751 47.168ZM21.5275 48.144C20.9195 48.144 20.3435 48.0587 19.7995 47.888C19.2555 47.7173 18.8075 47.4773 18.4555 47.168L18.8715 46.256C19.2555 46.5653 19.6768 46.7947 20.1355 46.944C20.6048 47.0827 21.0795 47.152 21.5595 47.152C22.1675 47.152 22.6262 47.04 22.9355 46.816C23.2448 46.592 23.3995 46.288 23.3995 45.904C23.3995 45.6053 23.2982 45.3707 23.0955 45.2C22.8928 45.0187 22.5728 44.88 22.1355 44.784L20.6795 44.464C19.3568 44.176 18.6955 43.4933 18.6955 42.416C18.6955 41.712 18.9728 41.1467 19.5275 40.72C20.0928 40.2933 20.8288 40.08 21.7355 40.08C22.2688 40.08 22.7755 40.1653 23.2555 40.336C23.7462 40.496 24.1515 40.736 24.4715 41.056L24.0395 41.968C23.7302 41.68 23.3675 41.4613 22.9515 41.312C22.5462 41.152 22.1408 41.072 21.7355 41.072C21.1382 41.072 20.6848 41.1893 20.3755 41.424C20.0662 41.6587 19.9115 41.968 19.9115 42.352C19.9115 42.9493 20.3062 43.3333 21.0955 43.504L22.5515 43.808C23.2342 43.9573 23.7515 44.1973 24.1035 44.528C24.4555 44.848 24.6315 45.2853 24.6315 45.84C24.6315 46.5547 24.3488 47.12 23.7835 47.536C23.2182 47.9413 22.4662 48.144 21.5275 48.144ZM27.3464 50.88L28.6744 47.872L25.3944 40.224H26.8024L29.3784 46.528L31.9704 40.224H33.3304L28.7064 50.88H27.3464ZM42.7145 48.144C42.0958 48.144 41.5518 48.0053 41.0825 47.728C40.6238 47.4507 40.2772 47.072 40.0425 46.592V48H38.7785V36.72H40.0745V41.568C40.2985 41.1093 40.6452 40.7467 41.1145 40.48C41.5838 40.2133 42.1172 40.08 42.7145 40.08C43.4078 40.08 44.0105 40.2453 44.5225 40.576C45.0452 40.896 45.4452 41.36 45.7225 41.968C46.0105 42.5653 46.1545 43.28 46.1545 44.112C46.1545 44.9333 46.0105 45.648 45.7225 46.256C45.4452 46.8533 45.0452 47.3173 44.5225 47.648C44.0105 47.9787 43.4078 48.144 42.7145 48.144ZM42.4425 47.104C43.1678 47.104 43.7492 46.848 44.1865 46.336C44.6238 45.8133 44.8425 45.072 44.8425 44.112C44.8425 43.1413 44.6238 42.4 44.1865 41.888C43.7492 41.376 43.1678 41.12 42.4425 41.12C41.7172 41.12 41.1358 41.376 40.6985 41.888C40.2612 42.4 40.0425 43.1413 40.0425 44.112C40.0425 45.072 40.2612 45.8133 40.6985 46.336C41.1358 46.848 41.7172 47.104 42.4425 47.104ZM51.3386 48.144C50.5813 48.144 49.9253 47.9787 49.3706 47.648C48.816 47.3173 48.384 46.8533 48.0746 46.256C47.776 45.648 47.6266 44.9333 47.6266 44.112C47.6266 43.2907 47.776 42.5813 48.0746 41.984C48.384 41.376 48.816 40.9067 49.3706 40.576C49.9253 40.2453 50.5813 40.08 51.3386 40.08C52.0853 40.08 52.736 40.2453 53.2906 40.576C53.856 40.9067 54.288 41.376 54.5866 41.984C54.896 42.5813 55.0506 43.2907 55.0506 44.112C55.0506 44.9333 54.896 45.648 54.5866 46.256C54.288 46.8533 53.856 47.3173 53.2906 47.648C52.736 47.9787 52.0853 48.144 51.3386 48.144ZM51.3386 47.104C52.064 47.104 52.6453 46.848 53.0826 46.336C53.52 45.8133 53.7386 45.072 53.7386 44.112C53.7386 43.1413 53.52 42.4 53.0826 41.888C52.6453 41.376 52.064 41.12 51.3386 41.12C50.6026 41.12 50.016 41.376 49.5786 41.888C49.152 42.4 48.9386 43.1413 48.9386 44.112C48.9386 45.072 49.152 45.8133 49.5786 46.336C50.016 46.848 50.6026 47.104 51.3386 47.104ZM60.2293 48.144C59.4719 48.144 58.8159 47.9787 58.2613 47.648C57.7066 47.3173 57.2746 46.8533 56.9653 46.256C56.6666 45.648 56.5173 44.9333 56.5173 44.112C56.5173 43.2907 56.6666 42.5813 56.9653 41.984C57.2746 41.376 57.7066 40.9067 58.2613 40.576C58.8159 40.2453 59.4719 40.08 60.2293 40.08C60.9759 40.08 61.6266 40.2453 62.1813 40.576C62.7466 40.9067 63.1786 41.376 63.4773 41.984C63.7866 42.5813 63.9413 43.2907 63.9413 44.112C63.9413 44.9333 63.7866 45.648 63.4773 46.256C63.1786 46.8533 62.7466 47.3173 62.1813 47.648C61.6266 47.9787 60.9759 48.144 60.2293 48.144ZM60.2293 47.104C60.9546 47.104 61.5359 46.848 61.9733 46.336C62.4106 45.8133 62.6293 45.072 62.6293 44.112C62.6293 43.1413 62.4106 42.4 61.9733 41.888C61.5359 41.376 60.9546 41.12 60.2293 41.12C59.4933 41.12 58.9066 41.376 58.4693 41.888C58.0426 42.4 57.8293 43.1413 57.8293 44.112C57.8293 45.072 58.0426 45.8133 58.4693 46.336C58.9066 46.848 59.4933 47.104 60.2293 47.104ZM65.8879 48V36.72H67.1839V43.68H67.2159L70.8159 40.224H72.4639L68.5599 43.968L72.7999 48H71.1519L67.2159 44.352H67.1839V48H65.8879ZM73.7279 38.288V36.832H75.3279V38.288H73.7279ZM73.8879 48V40.224H75.1839V48H73.8879ZM77.6066 48V40.224H78.8706V41.552C79.1266 41.0613 79.4893 40.6933 79.9586 40.448C80.428 40.2027 80.956 40.08 81.5426 40.08C83.388 40.08 84.3106 41.104 84.3106 43.152V48H83.0146V43.232C83.0146 42.5067 82.8706 41.9787 82.5826 41.648C82.3053 41.3067 81.8573 41.136 81.2386 41.136C80.524 41.136 79.9533 41.36 79.5266 41.808C79.1106 42.2453 78.9026 42.832 78.9026 43.568V48H77.6066ZM90.1404 51.024C89.4684 51.024 88.8337 50.9333 88.2364 50.752C87.6497 50.5813 87.127 50.32 86.6684 49.968L87.1004 49.024C87.5804 49.3653 88.055 49.6107 88.5244 49.76C89.0044 49.9093 89.5217 49.984 90.0764 49.984C91.6124 49.984 92.3804 49.1947 92.3804 47.616V46.24C92.1564 46.7307 91.8044 47.12 91.3244 47.408C90.855 47.6853 90.3164 47.824 89.7084 47.824C88.9937 47.824 88.375 47.6587 87.8524 47.328C87.3297 46.9973 86.9244 46.544 86.6364 45.968C86.359 45.3813 86.2204 44.704 86.2204 43.936C86.2204 43.168 86.359 42.496 86.6364 41.92C86.9244 41.3333 87.3297 40.88 87.8524 40.56C88.375 40.24 88.9937 40.08 89.7084 40.08C90.3164 40.08 90.855 40.2187 91.3244 40.496C91.8044 40.7733 92.1564 41.152 92.3804 41.632V40.224H93.6444V47.44C93.6444 48.6347 93.3457 49.5307 92.7484 50.128C92.1617 50.7253 91.2924 51.024 90.1404 51.024ZM89.9484 46.768C90.695 46.768 91.287 46.512 91.7244 46C92.1617 45.488 92.3804 44.8 92.3804 43.936C92.3804 43.072 92.1617 42.3893 91.7244 41.888C91.287 41.376 90.695 41.12 89.9484 41.12C89.2124 41.12 88.6257 41.376 88.1884 41.888C87.751 42.3893 87.5324 43.072 87.5324 43.936C87.5324 44.8 87.751 45.488 88.1884 46C88.6257 46.512 89.2124 46.768 89.9484 46.768Z" fill="#717171"/>
<path d="M44.0314 6V5.2C44.0314 3.43 44.0314 2 47.3082 2H48.9466C52.2234 2 52.2234 3.43 52.2234 5.2V6M44.0314 22H52.2234C56.3399 22 57.0772 20.39 57.2922 18.43L58.0602 10.43C58.3367 7.99 57.6199 6 53.2474 6H43.0074C38.6349 6 37.9181 7.99 38.1946 10.43L38.9626 18.43C39.1776 20.39 39.9149 22 44.0314 22Z" stroke="#717171" stroke-width="1.5" stroke-miterlimit="10" stroke-linecap="round" stroke-linejoin="round"/>
<path d="M50.1766 14.02V13C50.1766 12 50.1766 12 49.1526 12H47.1046C46.0806 12 46.0806 12 46.0806 13V14.03M50.1766 14.02C50.1766 15.11 50.1663 16 48.1286 16C46.101 16 46.0806 15.12 46.0806 14.03M50.1766 14.02C53.0071 13.6759 55.7022 12.6369 58.0102 11M46.0806 14.03C43.4284 13.74 40.8274 12.81 38.5234 11.27" stroke="#717171" stroke-width="1.5" stroke-miterlimit="10" stroke-linecap="round" stroke-linejoin="round"/>
</svg>
